<?xml version="1.0" standalone="no"?>
<!DOCTYPE svg PUBLIC "-//W3C//DTD SVG 20010904//EN"
 "http://www.w3.org/TR/2001/REC-SVG-20010904/DTD/svg10.dtd">
<svg version="1.0" xmlns="http://www.w3.org/2000/svg"
 width="1000.000000pt" height="1000.000000pt" viewBox="0 0 1000.000000 1000.000000"
 preserveAspectRatio="xMidYMid meet">

<g transform="translate(0.000000,1000.000000) scale(0.100000,-0.100000)"
fill="#000000" stroke="none">
<path d="M3731 8714 l-734 -1225 -61 -36 c-299 -179 -628 -446 -859 -698 -604
-657 -956 -1432 -1053 -2318 -35 -314 -20 -758 37 -1084 202 -1176 922 -2202
1963 -2798 482 -276 1031 -448 1611 -506 155 -16 575 -16 730 0 1108 111 2080
638 2771 1502 90 112 260 366 339 503 271 474 439 1002 501 1569 23 205 23
609 0 814 -95 872 -435 1631 -1023 2286 -236 263 -578 544 -889 730 l-61 36
-734 1225 -734 1225 -535 0 -535 0 -734 -1225z"/>
</g>
</svg>
